<mxfile host="app.diagrams.net" agent="Mozilla/5.0 (Windows NT 10.0; Win64; x64) AppleWebKit/537.36 (KHTML, like Gecko) Chrome/136.0.0.0 Safari/537.36" version="27.0.9">
  <diagram name="Страница-1" id="0618idRESLrDNMiC--e1">
    <mxGraphModel dx="1024" dy="578" grid="1" gridSize="10" guides="1" tooltips="1" connect="1" arrows="1" fold="1" page="1" pageScale="1" pageWidth="1169" pageHeight="827" math="0" shadow="0">
      <root>
        <mxCell id="0" />
        <mxCell id="1" parent="0" />
        <mxCell id="QWppoCl-oQC9Dy7gS9Su-1" value="www.kaldata.com" style="rounded=0;whiteSpace=wrap;html=1;fillColor=#CCFF99;strokeWidth=1;" parent="1" vertex="1">
          <mxGeometry x="460" y="158" width="150" height="30" as="geometry" />
        </mxCell>
        <mxCell id="QWppoCl-oQC9Dy7gS9Su-2" value="&lt;div&gt;&lt;span style=&quot;background-color: transparent; color: light-dark(rgb(0, 0, 0), rgb(255, 255, 255));&quot;&gt;Sqlite3&lt;/span&gt;&lt;/div&gt;&lt;div&gt;&lt;br&gt;&lt;/div&gt;&lt;font style=&quot;font-size: 13px;&quot;&gt;kaldata.db&lt;/font&gt;" style="shape=cylinder3;whiteSpace=wrap;html=1;boundedLbl=1;backgroundOutline=1;size=15;fillColor=#FFFFCC;strokeWidth=1;rounded=0;" parent="1" vertex="1">
          <mxGeometry x="880" y="330" width="103.5" height="140" as="geometry" />
        </mxCell>
        <mxCell id="QWppoCl-oQC9Dy7gS9Su-3" value="&lt;font style=&quot;font-size: 13px;&quot;&gt;pipelines.py&lt;/font&gt;" style="whiteSpace=wrap;html=1;aspect=fixed;fillColor=#FFFFCC;strokeWidth=1;rounded=0;" parent="1" vertex="1">
          <mxGeometry x="477.5" y="400" width="80" height="80" as="geometry" />
        </mxCell>
        <mxCell id="QWppoCl-oQC9Dy7gS9Su-4" value="content.json" style="rounded=0;whiteSpace=wrap;html=1;fillColor=#CCFFFF;strokeWidth=1;" parent="1" vertex="1">
          <mxGeometry x="680" y="250" width="160" height="30" as="geometry" />
        </mxCell>
        <mxCell id="QWppoCl-oQC9Dy7gS9Su-5" value="main.py" style="rounded=0;whiteSpace=wrap;html=1;fillColor=#FFFFCC;strokeWidth=1;" parent="1" vertex="1">
          <mxGeometry x="680" y="310" width="160" height="30" as="geometry" />
        </mxCell>
        <mxCell id="ygTaJ_szd_QOysX5MxoV-2" style="edgeStyle=orthogonalEdgeStyle;rounded=0;orthogonalLoop=1;jettySize=auto;html=1;exitX=0.5;exitY=1;exitDx=0;exitDy=0;" edge="1" parent="1" source="QWppoCl-oQC9Dy7gS9Su-6">
          <mxGeometry relative="1" as="geometry">
            <mxPoint x="760" y="400" as="targetPoint" />
          </mxGeometry>
        </mxCell>
        <mxCell id="QWppoCl-oQC9Dy7gS9Su-6" value="content-schema.json" style="rounded=0;whiteSpace=wrap;html=1;fillColor=#CCFFFF;strokeWidth=1;" parent="1" vertex="1">
          <mxGeometry x="680" y="370" width="160" height="30" as="geometry" />
        </mxCell>
        <mxCell id="QWppoCl-oQC9Dy7gS9Su-8" value="&lt;div style=&quot;line-height: 100%;&quot;&gt;&lt;div style=&quot;text-align: center;&quot;&gt;&lt;span style=&quot;background-color: transparent; color: light-dark(rgb(0, 0, 0), rgb(255, 255, 255));&quot;&gt;&amp;nbsp; &amp;nbsp;&lt;font style=&quot;font-size: 13px;&quot;&gt; &amp;nbsp; items.py&lt;/font&gt;&lt;/span&gt;&lt;/div&gt;&lt;div&gt;&lt;ul&gt;&lt;li&gt;&lt;font style=&quot;line-height: 100%; font-size: 11px;&quot;&gt;title&lt;/font&gt;&lt;/li&gt;&lt;li&gt;&lt;font style=&quot;line-height: 100%; font-size: 11px;&quot;&gt;body&lt;/font&gt;&lt;/li&gt;&lt;li&gt;&lt;font style=&quot;line-height: 100%; font-size: 11px;&quot;&gt;author&lt;/font&gt;&lt;/li&gt;&lt;li&gt;&lt;font style=&quot;line-height: 100%; font-size: 11px;&quot;&gt;pubdate&lt;/font&gt;&lt;/li&gt;&lt;/ul&gt;&lt;/div&gt;&lt;/div&gt;" style="whiteSpace=wrap;html=1;aspect=fixed;fillColor=#FFFFCC;strokeWidth=1;rounded=0;align=left;" parent="1" vertex="1">
          <mxGeometry x="465" y="240" width="105" height="105" as="geometry" />
        </mxCell>
        <mxCell id="QWppoCl-oQC9Dy7gS9Su-9" value="settings.py" style="whiteSpace=wrap;html=1;aspect=fixed;fillColor=#FFFF99;strokeWidth=1;rounded=0;" parent="1" vertex="1">
          <mxGeometry x="305" y="400" width="80" height="80" as="geometry" />
        </mxCell>
        <mxCell id="QWppoCl-oQC9Dy7gS9Su-10" value="All sections - only last 3 pages" style="rounded=0;whiteSpace=wrap;html=1;fillColor=#CCFF99;strokeWidth=1;" parent="1" vertex="1">
          <mxGeometry x="670" y="158" width="170" height="30" as="geometry" />
        </mxCell>
        <mxCell id="QWppoCl-oQC9Dy7gS9Su-20" value="&lt;font style=&quot;font-size: 13px;&quot;&gt;kaldata_spider.py&lt;/font&gt;" style="whiteSpace=wrap;html=1;aspect=fixed;fillColor=#FFFFCC;strokeWidth=1;rounded=0;" parent="1" vertex="1">
          <mxGeometry x="290" y="235" width="110" height="110" as="geometry" />
        </mxCell>
        <mxCell id="QWppoCl-oQC9Dy7gS9Su-26" value="" style="endArrow=classic;startArrow=classic;html=1;rounded=0;entryX=0.5;entryY=1;entryDx=0;entryDy=0;exitX=0.5;exitY=0;exitDx=0;exitDy=0;strokeWidth=1;" parent="1" source="QWppoCl-oQC9Dy7gS9Su-5" target="QWppoCl-oQC9Dy7gS9Su-4" edge="1">
          <mxGeometry width="50" height="50" relative="1" as="geometry">
            <mxPoint x="590" y="400" as="sourcePoint" />
            <mxPoint x="640" y="350" as="targetPoint" />
          </mxGeometry>
        </mxCell>
        <mxCell id="QWppoCl-oQC9Dy7gS9Su-27" value="" style="endArrow=classic;startArrow=classic;html=1;rounded=0;entryX=0.5;entryY=1;entryDx=0;entryDy=0;strokeWidth=1;" parent="1" source="QWppoCl-oQC9Dy7gS9Su-6" target="QWppoCl-oQC9Dy7gS9Su-5" edge="1">
          <mxGeometry width="50" height="50" relative="1" as="geometry">
            <mxPoint x="590" y="400" as="sourcePoint" />
            <mxPoint x="640" y="350" as="targetPoint" />
          </mxGeometry>
        </mxCell>
        <mxCell id="QWppoCl-oQC9Dy7gS9Su-30" value="" style="endArrow=classic;html=1;rounded=0;strokeWidth=1;" parent="1" edge="1">
          <mxGeometry width="50" height="50" relative="1" as="geometry">
            <mxPoint x="600" y="330" as="sourcePoint" />
            <mxPoint x="680" y="330" as="targetPoint" />
          </mxGeometry>
        </mxCell>
        <mxCell id="QWppoCl-oQC9Dy7gS9Su-31" value="" style="endArrow=none;html=1;rounded=0;strokeWidth=1;" parent="1" edge="1">
          <mxGeometry width="50" height="50" relative="1" as="geometry">
            <mxPoint x="600" y="410" as="sourcePoint" />
            <mxPoint x="600" y="330" as="targetPoint" />
          </mxGeometry>
        </mxCell>
        <mxCell id="QWppoCl-oQC9Dy7gS9Su-32" value="" style="endArrow=none;html=1;rounded=0;exitX=1;exitY=0.129;exitDx=0;exitDy=0;strokeWidth=1;exitPerimeter=0;" parent="1" source="QWppoCl-oQC9Dy7gS9Su-3" edge="1">
          <mxGeometry width="50" height="50" relative="1" as="geometry">
            <mxPoint x="580" y="440" as="sourcePoint" />
            <mxPoint x="600" y="410" as="targetPoint" />
            <Array as="points" />
          </mxGeometry>
        </mxCell>
        <mxCell id="QWppoCl-oQC9Dy7gS9Su-34" value="" style="endArrow=classic;html=1;rounded=0;exitX=0.5;exitY=1;exitDx=0;exitDy=0;entryX=0.5;entryY=0;entryDx=0;entryDy=0;strokeWidth=1;" parent="1" source="QWppoCl-oQC9Dy7gS9Su-20" target="QWppoCl-oQC9Dy7gS9Su-9" edge="1">
          <mxGeometry width="50" height="50" relative="1" as="geometry">
            <mxPoint x="590" y="410" as="sourcePoint" />
            <mxPoint x="640" y="360" as="targetPoint" />
          </mxGeometry>
        </mxCell>
        <mxCell id="QWppoCl-oQC9Dy7gS9Su-38" value="" style="endArrow=classic;startArrow=classic;html=1;rounded=0;entryX=0.5;entryY=1;entryDx=0;entryDy=0;exitX=0.5;exitY=0;exitDx=0;exitDy=0;strokeWidth=1;" parent="1" source="QWppoCl-oQC9Dy7gS9Su-3" target="QWppoCl-oQC9Dy7gS9Su-8" edge="1">
          <mxGeometry width="50" height="50" relative="1" as="geometry">
            <mxPoint x="690" y="410" as="sourcePoint" />
            <mxPoint x="740" y="360" as="targetPoint" />
          </mxGeometry>
        </mxCell>
        <mxCell id="QWppoCl-oQC9Dy7gS9Su-39" value="" style="endArrow=classic;html=1;rounded=0;strokeWidth=1;entryX=1.031;entryY=0.125;entryDx=0;entryDy=0;entryPerimeter=0;" parent="1" edge="1">
          <mxGeometry width="50" height="50" relative="1" as="geometry">
            <mxPoint x="600" y="410" as="sourcePoint" />
            <mxPoint x="557.4999999999999" y="410" as="targetPoint" />
            <Array as="points">
              <mxPoint x="587.52" y="410" />
            </Array>
          </mxGeometry>
        </mxCell>
        <mxCell id="QWppoCl-oQC9Dy7gS9Su-42" value="" style="endArrow=none;html=1;rounded=0;" parent="1" edge="1">
          <mxGeometry width="50" height="50" relative="1" as="geometry">
            <mxPoint x="210" y="80" as="sourcePoint" />
            <mxPoint x="1070" y="80" as="targetPoint" />
          </mxGeometry>
        </mxCell>
        <mxCell id="QWppoCl-oQC9Dy7gS9Su-43" value="" style="endArrow=none;html=1;rounded=0;" parent="1" edge="1">
          <mxGeometry width="50" height="50" relative="1" as="geometry">
            <mxPoint x="210" y="570" as="sourcePoint" />
            <mxPoint x="1070" y="570" as="targetPoint" />
          </mxGeometry>
        </mxCell>
        <mxCell id="QWppoCl-oQC9Dy7gS9Su-44" value="" style="endArrow=none;html=1;rounded=0;" parent="1" edge="1">
          <mxGeometry width="50" height="50" relative="1" as="geometry">
            <mxPoint x="210" y="570" as="sourcePoint" />
            <mxPoint x="210" y="80" as="targetPoint" />
          </mxGeometry>
        </mxCell>
        <mxCell id="QWppoCl-oQC9Dy7gS9Su-45" value="" style="endArrow=none;html=1;rounded=0;" parent="1" edge="1">
          <mxGeometry width="50" height="50" relative="1" as="geometry">
            <mxPoint x="1070" y="570" as="sourcePoint" />
            <mxPoint x="1070" y="80" as="targetPoint" />
          </mxGeometry>
        </mxCell>
        <mxCell id="ygTaJ_szd_QOysX5MxoV-1" value="" style="endArrow=classic;html=1;rounded=0;exitX=1;exitY=0.5;exitDx=0;exitDy=0;entryX=0.006;entryY=0.472;entryDx=0;entryDy=0;entryPerimeter=0;" edge="1" parent="1" source="QWppoCl-oQC9Dy7gS9Su-20" target="QWppoCl-oQC9Dy7gS9Su-8">
          <mxGeometry width="50" height="50" relative="1" as="geometry">
            <mxPoint x="630" y="390" as="sourcePoint" />
            <mxPoint x="460" y="290" as="targetPoint" />
          </mxGeometry>
        </mxCell>
        <mxCell id="ygTaJ_szd_QOysX5MxoV-3" value="" style="endArrow=classic;html=1;rounded=0;exitX=1;exitY=0.5;exitDx=0;exitDy=0;entryX=0.021;entryY=0.771;entryDx=0;entryDy=0;entryPerimeter=0;" edge="1" parent="1" source="QWppoCl-oQC9Dy7gS9Su-3" target="QWppoCl-oQC9Dy7gS9Su-2">
          <mxGeometry width="50" height="50" relative="1" as="geometry">
            <mxPoint x="790" y="410" as="sourcePoint" />
            <mxPoint x="840" y="360" as="targetPoint" />
          </mxGeometry>
        </mxCell>
        <mxCell id="ygTaJ_szd_QOysX5MxoV-4" value="" style="endArrow=none;html=1;rounded=0;exitX=1;exitY=0.5;exitDx=0;exitDy=0;entryX=0;entryY=0.5;entryDx=0;entryDy=0;" edge="1" parent="1" source="QWppoCl-oQC9Dy7gS9Su-1" target="QWppoCl-oQC9Dy7gS9Su-10">
          <mxGeometry width="50" height="50" relative="1" as="geometry">
            <mxPoint x="720" y="378" as="sourcePoint" />
            <mxPoint x="770" y="328" as="targetPoint" />
          </mxGeometry>
        </mxCell>
        <mxCell id="ygTaJ_szd_QOysX5MxoV-5" value="Text" style="text;html=1;align=center;verticalAlign=middle;resizable=0;points=[];autosize=1;strokeColor=none;fillColor=none;" vertex="1" parent="1">
          <mxGeometry x="985" y="38" width="50" height="30" as="geometry" />
        </mxCell>
        <mxCell id="ygTaJ_szd_QOysX5MxoV-7" value="&lt;font&gt;validation&lt;/font&gt;" style="text;html=1;align=center;verticalAlign=middle;resizable=0;points=[];autosize=1;strokeColor=none;fillColor=none;" vertex="1" parent="1">
          <mxGeometry x="600" y="300" width="70" height="30" as="geometry" />
        </mxCell>
        <mxCell id="ygTaJ_szd_QOysX5MxoV-8" value="&lt;font style=&quot;font-size: 13px;&quot;&gt;Spider workflow&lt;/font&gt;" style="text;html=1;align=center;verticalAlign=middle;resizable=0;points=[];autosize=1;strokeColor=none;fillColor=none;" vertex="1" parent="1">
          <mxGeometry x="285" y="158" width="120" height="30" as="geometry" />
        </mxCell>
      </root>
    </mxGraphModel>
  </diagram>
</mxfile>
